<?xml version="1.0" encoding="UTF-8"?><svg id="a" xmlns="http://www.w3.org/2000/svg" viewBox="0 0 89.84 52.42"><defs><style>.b{fill:#1d1d1b;}</style></defs><g><path class="b" d="M13.87,11.89h5.02L7,23.78l11.89,11.89h-5.02L1.98,23.78,13.87,11.89Z"/><path class="b" d="M24.52,17.25c.49-.83,1.17-1.49,2.02-1.98,.85-.49,1.78-.74,2.79-.74h2.11c1.27,0,2.4,.37,3.41,1.12,1,.75,1.67,1.7,2.01,2.84h-3.7c-.55-.28-1.12-.41-1.72-.4h-2.11c-.53-.02-1,.17-1.4,.55-.41,.39-.6,.82-.58,1.29-.02,.56,.17,1.05,.57,1.45,.4,.41,.87,.63,1.41,.66h2.11c1-.02,1.93,.22,2.79,.7,.85,.48,1.53,1.15,2.02,1.98,.49,.84,.74,1.75,.74,2.73s-.25,1.96-.74,2.8-1.16,1.52-2.01,2.01c-.85,.49-1.78,.74-2.8,.74h-2.11c-1.25,0-2.38-.38-3.4-1.14-1.01-.76-1.69-1.7-2.02-2.83h3.7c.46,.28,.99,.41,1.59,.4h2.25c.55,.02,1.02-.17,1.41-.57,.4-.4,.59-.87,.57-1.41,.02-.51-.17-.96-.57-1.35-.4-.39-.87-.6-1.41-.63h-2.11c-1.02,.02-1.96-.22-2.8-.7-.85-.48-1.52-1.15-2.01-2.01-.49-.85-.74-1.8-.74-2.84,0-.97,.25-1.87,.74-2.7Z"/><path class="b" d="M75.96,35.67h-5.02l11.89-11.89-11.89-11.89h5.02l11.89,11.89-11.89,11.89Z"/></g><g><path d="M59.53,12.77c-1.04,1.06-1.97,2.24-2.84,3.44-.23,.32-.46,.63-.7,.94-.45,.58-.89,1.2-1.32,1.8-.35,.49-.65,1-.99,1.5-.38,.55-.67,1.12-1.04,1.68-1.38,2.11-2.65,4.3-3.75,6.57s-1.96,4.45-2.67,6.78c-.75,2.45-1.3,4.96-1.69,7.5-.04,.26-.08,.51-.11,.77,.09-1.35,.24-2.7,.45-4.05s.48-2.64,.8-3.94,.7-2.56,1.13-3.81,.91-2.46,1.43-3.66,1.09-2.34,1.71-3.48,1.27-2.21,1.97-3.28,1.42-2.07,2.2-3.05c.92-1.17,1.91-2.3,2.95-3.37,.39-.4,.79-.8,1.2-1.18s.87-.76,1.28-1.16Z"/><path d="M67.66,5.5c-2.34,.14-4.51,.88-6.58,1.92-4.55,2.28-8.35,5.48-11.5,9.44-1.91,2.41-3.46,5.03-4.14,8.07-.17,.76-.23,1.54-.35,2.41,0-.04-.08-.13-.1-.16-.05-.07-.09-.15-.14-.22-.06-.09-.11-.17-.17-.26-.03-.05-.08-.09-.11-.14-.04-.06-.06-.12-.09-.18-.1,.19-.13,.4-.15,.61s-.04,.43-.07,.64c-.06,.43-.1,.87-.02,1.29,.14,.76,.64,1.46,.99,2.2l-1.63-.66c-.12,2.23,.16,4.24,1.3,6,.27-1.32,.59-2.63,.97-3.92,.35-1.19,.75-2.37,1.21-3.53,.42-1.07,.88-2.13,1.39-3.16,.47-.95,.98-1.89,1.52-2.8,.5-.84,1.03-1.65,1.6-2.45,.51-.72,1.05-1.43,1.62-2.12,.51-.62,1.04-1.21,1.59-1.79,.76-.8,1.55-1.58,2.38-2.31s1.63-1.5,2.56-2.01c.1-.05,.2-.1,.3-.15,.02,0,.03-.01,.05,0-.03,.29-.34,.64-.5,.88-.34,.51-.75,.97-1.15,1.44-.59,.68-1.14,1.4-1.66,2.13-.58,.82-1.13,1.67-1.66,2.53-.56,.92-1.1,1.85-1.62,2.8s-1.05,1.95-1.55,2.94-.98,1.96-1.45,2.95-.89,1.89-1.32,2.84c-.39,.86-.77,1.73-1.15,2.6-.32,.74-.64,1.48-.95,2.23-.12,.29-.24,.58-.36,.87-.05,.13-.11,.26-.16,.39-.02,.05-.1,.34-.14,.35,2.52-.8,4.64-2.19,6.67-3.92l-.99-.56c.89-.33,1.67-.74,2.22-1.62-.37,0-.64,.02-.91,0-.25-.02-.49-.08-.87-.15,1.91-.48,3.23-1.42,4-3.09,1.86-4.07,3.68-8.16,5.64-12.17,1.72-3.51,3.47-7.03,6.21-9.91,.02-.02,0-.08,.02-.24-.25,0-.49-.01-.74,0Z"/></g></svg>