<?xml version="1.0" encoding="UTF-8"?><svg id="a" xmlns="http://www.w3.org/2000/svg" viewBox="0 0 305.18 52.42"><defs><style>.b{fill:#1d1d1b;}</style></defs><g><path class="b" d="M13.87,11.89h5.02L7,23.78l11.89,11.89h-5.02L1.98,23.78,13.87,11.89Z"/><path class="b" d="M24.52,17.25c.49-.83,1.17-1.49,2.02-1.98,.85-.49,1.78-.74,2.79-.74h2.11c1.27,0,2.4,.37,3.41,1.12,1,.75,1.67,1.7,2.01,2.84h-3.7c-.55-.28-1.12-.41-1.72-.4h-2.11c-.53-.02-1,.17-1.4,.55-.41,.39-.6,.82-.58,1.29-.02,.56,.17,1.05,.57,1.45,.4,.41,.87,.63,1.41,.66h2.11c1-.02,1.93,.22,2.79,.7,.85,.48,1.53,1.14,2.02,1.98s.74,1.75,.74,2.73-.25,1.96-.74,2.8-1.16,1.52-2.01,2.01c-.85,.49-1.78,.74-2.8,.74h-2.11c-1.25,0-2.38-.38-3.4-1.14-1.01-.76-1.69-1.7-2.02-2.83h3.7c.46,.28,.99,.41,1.59,.4h2.25c.55,.02,1.02-.17,1.41-.57,.4-.4,.59-.87,.57-1.41,.02-.51-.17-.96-.57-1.35-.4-.39-.87-.6-1.41-.63h-2.11c-1.02,.02-1.96-.22-2.8-.7-.85-.48-1.52-1.15-2.01-2.01-.49-.85-.74-1.8-.74-2.84,0-.97,.25-1.87,.74-2.7Z"/><path class="b" d="M53.8,18.5c-.7-.28-1.46-.42-2.27-.42-1.04,0-1.99,.26-2.87,.77-.87,.51-1.56,1.2-2.07,2.07-.51,.87-.77,1.83-.77,2.87s.25,2,.77,2.87c.51,.87,1.2,1.56,2.07,2.07s1.83,.77,2.87,.77c.81,0,1.57-.14,2.27-.42,.7-.28,1.31-.68,1.82-1.19l2.51,2.51c-2.03,1.76-4.23,2.64-6.61,2.64-1.66,0-3.19-.42-4.61-1.25s-2.55-1.96-3.38-3.38c-.84-1.42-1.26-2.96-1.26-4.61s.42-3.19,1.26-4.61c.84-1.42,1.96-2.55,3.38-3.38s2.96-1.26,4.61-1.26c2.38,0,4.58,.88,6.61,2.64l-2.51,2.51c-.51-.51-1.12-.91-1.82-1.19Z"/><path class="b" d="M71.97,14.51c1.96,0,3.64,.76,5.05,2.27l-2.51,2.51c-.46-.37-.96-.67-1.51-.89-.55-.22-1.1-.33-1.66-.33-.78,0-1.5,.2-2.18,.59s-1.22,.93-1.61,1.61c-.4,.68-.59,1.4-.59,2.18v10.57h-3.54V14.53h2.64l.4,3.49c.46-1.06,1.1-1.89,1.93-2.5,.83-.61,1.81-.94,2.96-.99,.14-.02,.35-.03,.63-.03Z"/><path class="b" d="M88.67,27.32c.39,.67,.92,1.2,1.59,1.58,.67,.39,1.41,.58,2.22,.58v3.54c-1.43,0-2.75-.36-3.96-1.07-1.22-.71-2.18-1.68-2.89-2.89-.71-1.22-1.07-2.54-1.07-3.96v-7.03h-5.28v-3.54h8.83v10.57c0,.81,.19,1.55,.58,2.22Zm-4.54-16.33c-.6-.6-.9-1.33-.9-2.19s.3-1.59,.9-2.19c.6-.6,1.33-.9,2.19-.9s1.59,.3,2.19,.9c.6,.6,.9,1.33,.9,2.19s-.3,1.59-.9,2.19-1.33,.9-2.19,.9-1.59-.3-2.19-.9Z"/><path class="b" d="M111.67,15.76c1.42,.82,2.54,1.94,3.36,3.36,.82,1.42,1.23,2.97,1.23,4.66s-.41,3.25-1.23,4.66c-.82,1.42-1.94,2.54-3.36,3.36s-2.97,1.23-4.66,1.23c-1.07,0-2.1-.17-3.06-.5s-1.85-.81-2.64-1.43v9.86h-3.54V14.53h3.54v1.93c.79-.62,1.67-1.09,2.64-1.43,.97-.33,1.99-.5,3.06-.5,1.69,0,3.25,.41,4.66,1.23Zm-1.8,12.96c.87-.51,1.56-1.2,2.07-2.07,.51-.87,.77-1.83,.77-2.87s-.26-1.99-.77-2.87c-.51-.87-1.2-1.56-2.07-2.07-.87-.51-1.83-.77-2.87-.77s-1.99,.26-2.87,.77c-.87,.51-1.56,1.2-2.07,2.07-.51,.87-.77,1.83-.77,2.87s.25,2,.77,2.87c.51,.87,1.2,1.56,2.07,2.07s1.83,.77,2.87,.77,2-.25,2.87-.77Z"/><path class="b" d="M126.41,18.07v7.03c0,.81,.19,1.55,.58,2.22,.39,.67,.92,1.2,1.58,1.58,.67,.39,1.41,.58,2.22,.58v3.54c-1.43,0-2.75-.36-3.96-1.07-1.22-.71-2.18-1.68-2.89-2.89-.71-1.22-1.07-2.54-1.07-3.96v-7.03h-2.64v-3.54h2.64v-4.39l3.54-3.54v7.93h4.39v3.54h-4.39Z"/><path class="b" d="M139.34,31.8c-1.42-.82-2.54-1.94-3.36-3.36-.82-1.42-1.23-2.97-1.23-4.66s.41-3.25,1.23-4.66c.82-1.42,1.94-2.54,3.36-3.36,1.42-.82,2.97-1.23,4.66-1.23s3.25,.41,4.66,1.23c1.42,.82,2.54,1.94,3.36,3.36,.82,1.42,1.23,2.97,1.23,4.66s-.41,3.25-1.23,4.66c-.82,1.42-1.94,2.54-3.36,3.36s-2.97,1.23-4.66,1.23-3.25-.41-4.66-1.23Zm7.53-3.08c.87-.51,1.56-1.2,2.07-2.07,.51-.87,.77-1.83,.77-2.87s-.26-1.99-.77-2.87c-.51-.87-1.2-1.56-2.07-2.07-.87-.51-1.83-.77-2.87-.77s-1.99,.26-2.87,.77c-.87,.51-1.56,1.2-2.07,2.07-.51,.87-.77,1.83-.77,2.87s.25,2,.77,2.87c.51,.87,1.2,1.56,2.07,2.07s1.83,.77,2.87,.77,2-.25,2.87-.77Z"/><path class="b" d="M167.1,14.51c1.96,0,3.64,.76,5.05,2.27l-2.51,2.51c-.46-.37-.96-.67-1.51-.89s-1.1-.33-1.66-.33c-.78,0-1.5,.2-2.18,.59-.68,.4-1.22,.93-1.61,1.61-.4,.68-.59,1.4-.59,2.18v10.57h-3.54V14.53h2.64l.4,3.49c.46-1.06,1.1-1.89,1.93-2.5,.83-.61,1.81-.94,2.96-.99,.14-.02,.35-.03,.63-.03Z"/><path class="b" d="M183.8,27.32c.39,.67,.92,1.2,1.58,1.58,.67,.39,1.41,.58,2.22,.58v3.54c-1.43,0-2.75-.36-3.96-1.07-1.21-.71-2.18-1.68-2.89-2.89-.71-1.22-1.07-2.54-1.07-3.96v-7.03h-5.29v-3.54h8.83v10.57c0,.81,.19,1.55,.58,2.22Zm-4.54-16.33c-.6-.6-.9-1.33-.9-2.19s.3-1.59,.9-2.19c.6-.6,1.33-.9,2.19-.9s1.59,.3,2.19,.9c.6,.6,.9,1.33,.9,2.19s-.3,1.59-.9,2.19c-.6,.6-1.33,.9-2.19,.9s-1.59-.3-2.19-.9Z"/><path class="b" d="M207.42,14.53v10.57c0,1.43-.36,2.75-1.07,3.96-.71,1.21-1.68,2.18-2.89,2.89-1.22,.71-2.54,1.07-3.96,1.07s-2.75-.36-3.96-1.07c-1.22-.71-2.18-1.68-2.89-2.89-.71-1.22-1.07-2.54-1.07-3.96V14.53h3.54v10.57c0,.81,.19,1.55,.58,2.22,.39,.67,.92,1.2,1.58,1.58,.67,.39,1.41,.58,2.22,.58s1.55-.19,2.22-.58c.67-.39,1.2-.92,1.58-1.58,.39-.67,.58-1.41,.58-2.22V14.53h3.54Z"/><path class="b" d="M234.41,15.46c1.03,.62,1.85,1.44,2.47,2.47,.62,1.03,.92,2.14,.92,3.34v11.76h-3.54l-.03-11.76c0-.56-.14-1.09-.41-1.57-.27-.48-.65-.87-1.14-1.16-.48-.29-1.01-.44-1.57-.44-.97,0-1.78,.31-2.44,.92-.66,.62-1.01,1.37-1.04,2.25l.05,11.76h-3.54l.05-11.76c-.04-.86-.37-1.61-.99-2.23-.63-.63-1.38-.94-2.26-.94-.62,0-1.18,.14-1.7,.42-.52,.28-.92,.67-1.21,1.15-.29,.48-.44,1.02-.44,1.6l-.03,11.76h-3.54V14.53h2.64l.19,1.32c1.21-.88,2.56-1.32,4.04-1.32,.97,0,1.89,.2,2.76,.61s1.62,.96,2.26,1.66c.65-.72,1.42-1.28,2.31-1.68,.89-.4,1.84-.59,2.84-.59,1.2,0,2.31,.31,3.34,.92Z"/><path class="b" d="M291.31,35.67h-5.02l11.89-11.89-11.89-11.89h5.02l11.89,11.89-11.89,11.89Z"/></g><g><path d="M273.41,12.97c-1.04,1.06-1.97,2.24-2.84,3.44-.23,.32-.46,.63-.7,.94-.45,.58-.89,1.2-1.32,1.8-.35,.49-.65,1-.99,1.5-.38,.55-.67,1.12-1.04,1.68-1.38,2.11-2.65,4.3-3.75,6.57s-1.96,4.45-2.67,6.78c-.75,2.45-1.3,4.96-1.69,7.5-.04,.26-.08,.51-.11,.77,.09-1.35,.24-2.7,.45-4.05s.48-2.64,.8-3.94,.7-2.56,1.13-3.81,.91-2.46,1.43-3.66,1.09-2.34,1.71-3.48,1.27-2.21,1.97-3.28,1.42-2.07,2.2-3.05c.92-1.17,1.91-2.3,2.95-3.37,.39-.4,.79-.8,1.2-1.18s.87-.76,1.28-1.16Z"/><path d="M281.55,5.7c-2.34,.14-4.51,.88-6.58,1.92-4.55,2.28-8.35,5.48-11.5,9.44-1.91,2.41-3.46,5.03-4.14,8.07-.17,.76-.23,1.54-.35,2.41,0-.04-.08-.13-.1-.16-.05-.07-.09-.15-.14-.22-.06-.09-.11-.17-.17-.26-.03-.05-.08-.09-.11-.14-.04-.06-.06-.12-.09-.18-.1,.19-.13,.4-.15,.61s-.04,.43-.07,.64c-.06,.43-.1,.87-.02,1.29,.14,.76,.64,1.46,.99,2.2l-1.63-.66c-.12,2.23,.16,4.24,1.3,6,.27-1.32,.59-2.63,.97-3.92,.35-1.19,.75-2.37,1.21-3.53,.42-1.07,.88-2.13,1.39-3.16,.47-.95,.98-1.89,1.52-2.8,.5-.84,1.03-1.65,1.6-2.45,.51-.72,1.05-1.43,1.62-2.12,.51-.62,1.04-1.21,1.59-1.79,.76-.8,1.55-1.58,2.38-2.31s1.63-1.5,2.56-2.01c.1-.05,.2-.1,.3-.15,.02,0,.03-.01,.05,0-.03,.29-.34,.64-.5,.88-.34,.51-.75,.97-1.15,1.44-.59,.68-1.14,1.4-1.66,2.13-.58,.82-1.13,1.67-1.66,2.53-.56,.92-1.1,1.85-1.62,2.8s-1.05,1.95-1.55,2.94-.98,1.96-1.45,2.95-.89,1.89-1.32,2.84c-.39,.86-.77,1.73-1.15,2.6-.32,.74-.64,1.48-.95,2.23-.12,.29-.24,.58-.36,.87-.05,.13-.11,.26-.16,.39-.02,.05-.1,.34-.14,.35,2.52-.8,4.64-2.19,6.67-3.92l-.99-.56c.89-.33,1.67-.74,2.22-1.62-.37,0-.64,.02-.91,0-.25-.02-.49-.08-.87-.15,1.91-.48,3.23-1.42,4-3.09,1.86-4.07,3.68-8.16,5.64-12.17,1.72-3.51,3.47-7.03,6.21-9.91,.02-.02,0-.08,.02-.24-.25,0-.49-.01-.74,0Z"/></g></svg>